<mxfile host="app.diagrams.net" agent="Mozilla/5.0 (Windows NT 10.0; Win64; x64) AppleWebKit/537.36 (KHTML, like Gecko) Chrome/136.0.0.0 Safari/537.36" version="26.1.0">
  <diagram name="Page-1" id="0Gqs2zB3fQ_JKMYZYUpU">
    <mxGraphModel>
      <root>
        <mxCell id="0" />
        <mxCell id="1" parent="0" />
        <mxCell id="2" value="Customer" style="whiteSpace=wrap;strokeWidth=2;" vertex="1" parent="1">
          <mxGeometry x="758" y="8" width="128" height="54" as="geometry" />
        </mxCell>
        <mxCell id="3" value="Online Ticket Booking System" style="whiteSpace=wrap;strokeWidth=2;" vertex="1" parent="1">
          <mxGeometry x="404" y="280" width="260" height="78" as="geometry" />
        </mxCell>
        <mxCell id="4" value="Showtime Selector" style="whiteSpace=wrap;strokeWidth=2;" vertex="1" parent="1">
          <mxGeometry x="246" y="153" width="195" height="54" as="geometry" />
        </mxCell>
        <mxCell id="5" value="Booking Module" style="whiteSpace=wrap;strokeWidth=2;" vertex="1" parent="1">
          <mxGeometry x="989" y="153" width="171" height="54" as="geometry" />
        </mxCell>
        <mxCell id="6" value="Payment Gateway" style="whiteSpace=wrap;strokeWidth=2;" vertex="1" parent="1">
          <mxGeometry x="909" y="292" width="190" height="54" as="geometry" />
        </mxCell>
        <mxCell id="7" value="Booking Confirmation" style="whiteSpace=wrap;strokeWidth=2;" vertex="1" parent="1">
          <mxGeometry x="1183" y="292" width="215" height="54" as="geometry" />
        </mxCell>
        <mxCell id="8" value="Error Handling" style="whiteSpace=wrap;strokeWidth=2;" vertex="1" parent="1">
          <mxGeometry x="1447" y="292" width="163" height="54" as="geometry" />
        </mxCell>
        <mxCell id="9" value="Requests Movie Information" style="curved=1;startArrow=none;endArrow=block;exitX=0;exitY=0.62;entryX=0;entryY=0.21;" edge="1" parent="1" source="2" target="3">
          <mxGeometry relative="1" as="geometry">
            <Array as="points">
              <mxPoint x="109" y="107" />
              <mxPoint x="109" y="244" />
            </Array>
          </mxGeometry>
        </mxCell>
        <mxCell id="10" value="Displays Movie List" style="curved=1;startArrow=none;endArrow=block;exitX=0.75;exitY=0;entryX=0.03;entryY=1;" edge="1" parent="1" source="3" target="2">
          <mxGeometry relative="1" as="geometry">
            <Array as="points">
              <mxPoint x="661" y="244" />
              <mxPoint x="661" y="107" />
            </Array>
          </mxGeometry>
        </mxCell>
        <mxCell id="11" value="Selects Movie and Showtime" style="curved=1;startArrow=none;endArrow=block;exitX=0;exitY=0.68;entryX=0.5;entryY=0;" edge="1" parent="1" source="2" target="4">
          <mxGeometry relative="1" as="geometry">
            <Array as="points">
              <mxPoint x="343" y="107" />
            </Array>
          </mxGeometry>
        </mxCell>
        <mxCell id="12" value="Shows Selected Showtime" style="curved=1;startArrow=none;endArrow=block;exitX=0.5;exitY=1;entryX=0.12;entryY=0;" edge="1" parent="1" source="4" target="3">
          <mxGeometry relative="1" as="geometry">
            <Array as="points">
              <mxPoint x="343" y="244" />
            </Array>
          </mxGeometry>
        </mxCell>
        <mxCell id="13" value="Initiates Ticket Booking" style="curved=1;startArrow=none;endArrow=block;exitX=1;exitY=0.84;entryX=0.5;entryY=0;" edge="1" parent="1" source="2" target="5">
          <mxGeometry relative="1" as="geometry">
            <Array as="points">
              <mxPoint x="1074" y="107" />
            </Array>
          </mxGeometry>
        </mxCell>
        <mxCell id="14" value="Confirms Booking Details" style="curved=1;startArrow=none;endArrow=block;exitX=0;exitY=0.69;entryX=0.53;entryY=0;" edge="1" parent="1" source="5" target="3">
          <mxGeometry relative="1" as="geometry">
            <Array as="points">
              <mxPoint x="549" y="244" />
            </Array>
          </mxGeometry>
        </mxCell>
        <mxCell id="15" value="Sends Confirmation" style="curved=1;startArrow=none;endArrow=block;exitX=1;exitY=0.07;entryX=0.5;entryY=1;" edge="1" parent="1" source="3" target="2">
          <mxGeometry relative="1" as="geometry">
            <Array as="points">
              <mxPoint x="822" y="244" />
            </Array>
          </mxGeometry>
        </mxCell>
        <mxCell id="16" value="Processes Payment" style="curved=1;startArrow=none;endArrow=block;exitX=0.09;exitY=1;entryX=0.32;entryY=0;" edge="1" parent="1" source="5" target="6">
          <mxGeometry relative="1" as="geometry">
            <Array as="points">
              <mxPoint x="911" y="244" />
            </Array>
          </mxGeometry>
        </mxCell>
        <mxCell id="17" value="Payment Status" style="curved=1;startArrow=none;endArrow=block;exitX=0.64;exitY=0;entryX=0.51;entryY=1;" edge="1" parent="1" source="6" target="5">
          <mxGeometry relative="1" as="geometry">
            <Array as="points">
              <mxPoint x="1078" y="244" />
            </Array>
          </mxGeometry>
        </mxCell>
        <mxCell id="18" value="Success" style="curved=1;startArrow=none;endArrow=block;exitX=0.8;exitY=1;entryX=0.34;entryY=0;" edge="1" parent="1" source="5" target="7">
          <mxGeometry relative="1" as="geometry">
            <Array as="points">
              <mxPoint x="1194" y="244" />
            </Array>
          </mxGeometry>
        </mxCell>
        <mxCell id="19" value="Failure" style="curved=1;startArrow=none;endArrow=block;exitX=1;exitY=0.8;entryX=0.24;entryY=0;" edge="1" parent="1" source="5" target="8">
          <mxGeometry relative="1" as="geometry">
            <Array as="points">
              <mxPoint x="1409" y="244" />
            </Array>
          </mxGeometry>
        </mxCell>
        <mxCell id="20" value="Sends Confirmation Email" style="curved=1;startArrow=none;endArrow=block;exitX=0.53;exitY=0;entryX=1;entryY=0.68;" edge="1" parent="1" source="7" target="2">
          <mxGeometry relative="1" as="geometry">
            <Array as="points">
              <mxPoint x="1311" y="244" />
              <mxPoint x="1311" y="107" />
            </Array>
          </mxGeometry>
        </mxCell>
        <mxCell id="21" value="Displays Error Message" style="curved=1;startArrow=none;endArrow=block;exitX=0.5;exitY=0;entryX=1;entryY=0.62;" edge="1" parent="1" source="8" target="2">
          <mxGeometry relative="1" as="geometry">
            <Array as="points">
              <mxPoint x="1529" y="107" />
            </Array>
          </mxGeometry>
        </mxCell>
      </root>
    </mxGraphModel>
  </diagram>
</mxfile>
